<?xml version="1.0" standalone="no"?>
<!DOCTYPE svg PUBLIC "-//W3C//DTD SVG 20010904//EN"
 "http://www.w3.org/TR/2001/REC-SVG-20010904/DTD/svg10.dtd">
<svg version="1.0" xmlns="http://www.w3.org/2000/svg"
 width="4949.000000pt" height="717.000000pt" viewBox="0 0 4949.000000 717.000000"
 preserveAspectRatio="xMidYMid meet">

<g transform="translate(0.000000,717.000000) scale(0.100000,-0.100000)"
fill="#ffffff" stroke="none">
<path d="M470 6252 l0 -592 885 0 885 0 0 -2660 0 -2660 770 0 770 0 0 2660 0
2660 1825 0 1825 0 0 585 0 585 -1057 0 c-582 0 -2148 3 -3480 7 l-2423 6 0
-591z"/>
<path d="M8380 5475 l0 -1355 -1120 0 -1120 0 -2 353 -3 352 -702 3 -703 2 0
-2245 0 -2245 700 0 700 0 0 1360 0 1360 1125 0 1125 0 0 -1355 0 -1355 705 0
705 0 0 3240 0 3240 -705 0 -705 0 0 -1355z"/>
<path d="M23320 3610 l0 -2730 450 0 450 0 0 623 0 623 205 204 c117 115 209
199 214 194 4 -5 275 -375 601 -822 326 -448 598 -816 604 -818 6 -2 244 -3
528 -2 l518 3 -834 1120 -835 1120 48 50 c26 28 335 356 686 730 351 374 670
713 709 753 l70 72 -550 0 -550 0 -559 -598 c-308 -328 -623 -672 -700 -764
-77 -92 -143 -167 -147 -167 -5 -1 -8 706 -8 1569 l0 1570 -450 0 -450 0 0
-2730z"/>
<path d="M47830 5365 c0 -536 -3 -975 -6 -975 -4 0 -36 26 -73 58 -151 134
-293 216 -472 276 -168 56 -265 70 -499 70 -295 1 -462 -34 -685 -143 -519
-253 -843 -808 -906 -1550 -15 -176 -7 -549 16 -711 49 -358 156 -660 319
-905 246 -368 556 -576 971 -652 113 -21 424 -23 540 -4 200 33 376 96 521
187 91 56 239 177 277 225 14 18 28 31 31 28 5 -5 46 -339 46 -374 0 -13 52
-15 415 -15 l415 0 0 2730 0 2730 -455 0 -455 0 0 -975z m-695 -1275 c295 -34
531 -181 666 -416 l29 -51 0 -814 0 -814 -37 -63 c-73 -124 -219 -260 -348
-325 -134 -67 -337 -105 -500 -93 -470 33 -763 363 -840 949 -31 241 -15 633
36 851 61 261 151 431 303 573 175 163 416 234 691 203z"/>
<path d="M12060 5700 l0 -360 848 -2 847 -3 3 -2228 2 -2227 465 0 465 0 2
2228 3 2227 853 3 852 2 0 360 0 360 -2170 0 -2170 0 0 -360z"/>
<path d="M27340 3470 l0 -2590 475 0 475 0 0 1150 0 1150 1225 0 1225 0 0
-1150 0 -1150 470 0 470 0 0 2590 0 2590 -470 0 -470 0 -2 -1077 -3 -1078
-1220 0 -1220 0 -3 1078 -2 1077 -475 0 -475 0 0 -2590z"/>
<path d="M18324 4786 c-268 -44 -502 -187 -666 -409 l-53 -71 -7 64 c-4 36
-10 131 -14 213 l-6 147 -434 0 -434 0 0 -1925 0 -1925 455 0 455 0 0 1316 0
1316 32 62 c21 38 66 95 123 152 76 77 105 98 185 138 150 73 259 97 475 103
116 3 220 -1 293 -9 l112 -14 0 403 c0 221 -4 404 -9 407 -59 37 -361 56 -507
32z"/>
<path d="M20650 4793 c-458 -34 -889 -213 -1149 -476 -110 -111 -163 -183
-221 -302 -51 -104 -84 -222 -93 -332 l-5 -63 453 0 453 0 12 68 c28 163 125
284 297 370 245 124 645 114 856 -21 70 -45 158 -144 195 -220 55 -111 64
-163 69 -384 l5 -203 -369 0 c-576 0 -862 -32 -1168 -131 -118 -39 -332 -144
-421 -207 -327 -232 -479 -555 -461 -979 7 -175 32 -275 102 -418 166 -340
508 -578 941 -656 175 -32 483 -32 641 -1 272 54 509 171 695 342 63 57 68 60
72 38 22 -103 61 -246 78 -288 l21 -50 463 0 464 0 0 31 c0 17 -15 72 -34 123
-42 111 -69 217 -92 356 -16 93 -18 227 -24 1205 -6 1069 -7 1103 -27 1193
-30 131 -48 183 -104 297 -194 399 -625 652 -1199 704 -106 10 -344 12 -450 4z
m870 -2469 l0 -366 -44 -62 c-125 -175 -331 -305 -584 -368 -126 -32 -354 -32
-465 0 -111 32 -186 73 -260 142 -107 100 -157 220 -157 380 0 304 198 512
567 595 160 36 244 42 611 44 l332 1 0 -366z"/>
<path d="M34111 4789 c-896 -101 -1497 -710 -1621 -1642 -18 -136 -23 -385
-11 -542 26 -341 88 -582 217 -835 246 -486 670 -807 1208 -915 471 -94 985
-36 1365 155 532 266 865 759 956 1415 47 338 18 795 -70 1097 -84 289 -239
551 -450 763 -266 266 -593 427 -991 490 -120 19 -484 28 -603 14z m494 -708
c370 -97 622 -411 711 -888 22 -119 30 -466 14 -620 -23 -232 -71 -413 -149
-570 -141 -281 -359 -446 -653 -493 -109 -18 -320 -8 -423 19 -308 81 -531
311 -643 661 -91 286 -107 685 -41 1035 94 501 359 799 777 875 83 16 318 4
407 -19z"/>
<path d="M42987 4790 c-355 -45 -636 -176 -881 -412 -50 -48 -91 -88 -92 -88
-1 0 -4 64 -8 143 -3 78 -9 177 -13 220 l-6 77 -428 0 -429 0 0 -1925 0 -1925
455 0 455 0 0 1368 0 1368 31 50 c199 314 529 467 916 424 133 -14 202 -32
291 -76 133 -65 225 -186 275 -361 l22 -78 3 -1348 2 -1347 456 0 455 0 -4
1398 c-3 1390 -3 1398 -25 1512 -58 302 -156 514 -316 678 -153 159 -358 260
-621 308 -104 18 -434 27 -538 14z"/>
<path d="M36930 3400 c0 -869 4 -1364 11 -1428 71 -652 415 -1040 1009 -1137
284 -46 651 -21 900 61 177 59 366 172 501 301 l57 54 6 -63 c3 -35 8 -118 12
-185 l7 -123 428 0 429 0 0 1925 0 1925 -455 0 -455 0 0 -1384 0 -1384 -50
-75 c-126 -188 -321 -306 -584 -354 -129 -23 -380 -24 -466 0 -216 58 -347
193 -413 424 l-22 78 -3 1348 -2 1347 -455 0 -455 0 0 -1330z"/>
</g>
</svg>
